<?xml version="1.0" standalone="no"?>
<!DOCTYPE svg PUBLIC "-//W3C//DTD SVG 20010904//EN"
 "http://www.w3.org/TR/2001/REC-SVG-20010904/DTD/svg10.dtd">
<svg version="1.0" xmlns="http://www.w3.org/2000/svg"
 width="115.000000pt" height="122.000000pt" viewBox="0 0 115.000000 122.000000"
 preserveAspectRatio="xMidYMid meet">

<g transform="translate(0.000000,122.000000) scale(0.100000,-0.100000)"
fill="#000000" stroke="none">
<path d="M225 1024 c23 -84 87 -228 120 -269 13 -16 28 -20 75 -20 33 0 60 -2
60 -4 0 -3 -12 -17 -27 -33 -21 -22 -24 -30 -14 -42 25 -29 102 -59 157 -60
56 0 62 -4 42 -24 -8 -8 -8 -15 -2 -21 13 -12 195 -93 200 -89 6 7 -174 194
-276 287 -55 50 -96 91 -92 91 4 0 52 -27 107 -60 100 -61 201 -138 288 -219
26 -24 47 -41 47 -39 0 12 -45 107 -73 155 l-31 52 -12 -27 -12 -27 -1 38 c-1
47 -13 71 -59 120 l-36 37 -12 -37 c-9 -30 -12 -33 -13 -14 -4 86 -37 120
-176 180 l-70 30 -3 -40 -3 -40 -32 47 c-30 45 -97 92 -154 109 l-22 6 24 -87z"/>
<path d="M620 715 c146 -133 213 -203 296 -306 48 -60 92 -109 96 -109 14 0
-21 72 -62 126 -55 73 -170 185 -260 254 -114 86 -142 101 -70 35z"/>
<path d="M410 405 c-10 -13 -10 -19 2 -33 30 -35 29 -41 -5 -55 -18 -8 -45
-29 -60 -46 -22 -27 -27 -42 -27 -86 0 -111 29 -130 201 -130 163 0 189 18
189 130 0 44 -5 59 -27 86 -15 17 -42 38 -60 45 -39 17 -40 21 -12 51 18 18
20 25 9 38 -18 22 -192 22 -210 0z m-15 -171 c-14 -26 -25 -59 -25 -73 0 -20
-2 -23 -10 -11 -25 39 7 130 45 130 11 0 8 -12 -10 -46z"/>
<path d="M966 201 c-24 -50 -15 -83 21 -79 41 5 50 30 27 77 -10 22 -21 41
-24 41 -3 0 -13 -18 -24 -39z"/>
</g>
</svg>
